<svg width="32" height="12" viewBox="0 0 32 12" fill="none" xmlns="http://www.w3.org/2000/svg">
<g id="visa">
<path id="visa_2" fill-rule="evenodd" clip-rule="evenodd" d="M16.4709 4.17836C16.453 5.58599 17.7254 6.37152 18.6838 6.83857C19.6686 7.31782 19.9994 7.62511 19.9956 8.05359C19.9881 8.70949 19.21 8.99887 18.4818 9.01014C17.2113 9.02985 16.4727 8.66717 15.8855 8.39281L15.4279 10.5343C16.017 10.8059 17.108 11.0427 18.2394 11.053C20.8949 11.053 22.6323 9.74216 22.6418 7.70968C22.6521 5.13029 19.0738 4.98743 19.0982 3.83445C19.1067 3.4849 19.4403 3.11182 20.1713 3.01692C20.5331 2.96904 21.532 2.93235 22.6643 3.45385L23.1087 1.38194C22.4998 1.16015 21.7171 0.947754 20.7427 0.947754C18.2431 0.947754 16.485 2.27645 16.4709 4.17836ZM27.3796 1.12628C26.8947 1.12628 26.4859 1.40917 26.3037 1.84328L22.5102 10.9008H25.1638L25.6919 9.44143H28.9347L29.241 10.9008H31.5799L29.5389 1.12628H27.3796ZM27.7507 3.76678L28.5165 7.43712H26.4192L27.7507 3.76678ZM13.2535 1.12628L11.1618 10.9008H13.6904L15.7812 1.12628H13.2535ZM9.51266 1.12628L6.88061 7.77915L5.81595 2.12233C5.69101 1.49092 5.19768 1.12628 4.64982 1.12628H0.347122L0.286962 1.41011C1.17028 1.60178 2.17385 1.91095 2.78179 2.24172C3.15386 2.44371 3.2601 2.62036 3.38222 3.10055L5.39874 10.9008H8.07123L12.1682 1.12628H9.51266Z" fill="#1434CB"/>
</g>
</svg>
